<svg id="Layer_1" xmlns="http://www.w3.org/2000/svg" viewBox="-432 488 158 49"><style>.st0{fill:#0033A0;} .st1{fill:#7D868C;}</style><path class="st0" d="M-368.2 525.9l-.3.6s-.5-.3-1-.3c-.9 0-1.6.8-1.6 1.9 0 1.1.7 1.9 1.6 1.9.5 0 1-.3 1-.3l.3.6c-.3.2-.7.4-1.3.4-1.3 0-2.3-1-2.3-2.6s1-2.6 2.3-2.6c.6 0 1 .2 1.3.4zM-364.7 525.5l1.5 5.1h-.8l-.4-1.3h-1.6l-.4 1.3h-.8l1.5-5.1h1zm-1.1 3.2h1.3l-.6-2.3-.7 2.3zM-360.1 525.6c.9 0 1.5.7 1.5 1.6s-.6 1.6-1.5 1.6h-1.1v1.9h-.8v-5.1h1.9zm-1 2.4h.9c.6 0 .9-.4.9-.9s-.3-.9-.9-.9h-.9v1.8zM-356.4 525.6v5.1h-.8v-5.1h.8zM-351.5 525.6v.7h-1.4v4.4h-.8v-4.4h-1.4v-.7h3.6zM-348.5 525.5l1.5 5.1h-.8l-.4-1.3h-1.6l-.4 1.3h-.8l1.5-5.1h1zm-1.2 3.2h1.3l-.6-2.3-.7 2.3zM-344.9 525.6v4.4h2.1v.7h-2.9v-5.1h.8zM-339.3 530.6v-5.1h1.6c.4 0 .8.1 1 .3.7.5 1 1.3 1 2.2 0 .9-.3 1.8-1 2.2-.3.2-.7.3-1 .3h-1.6zm.8-.7h.6c.2 0 .5 0 .7-.2.4-.3.6-.8.6-1.6s-.2-1.3-.6-1.6c-.2-.2-.5-.2-.7-.2h-.6v3.6zM-331.1 525.6v.7h-2.3v1.6h2v.7h-2v1.4h2.3v.7h-3.1v-5.1h3.1zM-329.1 525.6l1.2 4.1 1.2-4.1h.8l-1.5 5.1h-.9l-1.5-5.1h.7zM-321.6 525.6v.7h-2.3v1.6h2v.7h-2v1.4h2.3v.7h-3.1v-5.1h3.1zM-319.2 525.6v4.4h2.1v.7h-2.9v-5.1h.8zM-313.9 525.5c1.4 0 2.2 1.1 2.2 2.6s-.8 2.6-2.2 2.6c-1.4 0-2.2-1.1-2.2-2.6s.8-2.6 2.2-2.6zm0 4.5c.9 0 1.4-.8 1.4-1.9 0-1.1-.6-1.9-1.4-1.9-.9 0-1.4.8-1.4 1.9-.1 1.1.5 1.9 1.4 1.9zM-308.3 525.6c.9 0 1.5.7 1.5 1.6s-.6 1.6-1.5 1.6h-1.1v1.9h-.8v-5.1h1.9zm-1.1 2.4h.9c.6 0 .9-.4.9-.9s-.3-.9-.9-.9h-.9v1.8zM-300.7 525.6v5.1h-.8v-2l.1-2-1.2 3.7h-.8l-1.2-3.7.1 2v2h-.8v-5.1h1.1l1.3 3.8 1.3-3.8h.9zM-295.8 525.6v.7h-2.3v1.6h2v.7h-2v1.4h2.3v.7h-3.1v-5.1h3.1zM-293.4 525.6l1.9 3.8v-3.7h.8v5.1h-.8l-1.9-3.8v3.8h-.8v-5.1h.8zM-285.9 525.6v.7h-1.4v4.4h-.8v-4.4h-1.4v-.7h3.6zM-284.8 530.3l.2-.6c.1.1.6.3 1.2.3.7 0 1-.3 1-.7 0-1.1-2.3-.7-2.3-2.4 0-.9.7-1.4 1.6-1.4.5 0 1 .2 1.4.3l-.2.6s-.5-.3-1.1-.3c-.6 0-.9.3-.9.7 0 1.1 2.3.6 2.3 2.4 0 1-.8 1.4-1.6 1.4-.7.1-1.3-.1-1.6-.3z"/><g><path class="st1" d="M-280.9 502v-3h-1.1v-.4h2.6v.4h-1.1v2.9h-.4zM-278.7 502v-3.3h.7l.8 2.4c.1.2.1.4.2.5 0-.1.1-.3.2-.5l.8-2.3h.6v3.3h-.4v-2.8l-1 2.8h-.4l-1-2.8v2.8h-.5z"/><g><path class="st1" d="M-376.2 498.6h6.6s3.1 14.3 3.3 15.9c.2-1.4 4-15.9 4-15.9h7.8s3.2 12.5 3.8 15.8c.2-1.2 3.2-15.8 3.2-15.8h6.6l-5.2 21.5h-9.1s-3.1-13.1-3.4-15.2c-.2 1.9-3.4 15.2-3.4 15.2h-9.2l-5-21.5zM-314 498.6v4.8h-16.7v3.5h15.6v4.9h-15.6v3.4h17v4.9h-24.7v-21.5h24.4zM-310 498.6h19.7c1.5 0 3.5.1 5 1.1 1.5 1.1 1.8 2.9 1.8 3.9 0 2.7-1.5 4.2-4.1 4.8 1.3.2 2.8.4 4 1.7.9 1 1.2 2.1 1.2 3.6 0 3-1.7 4.7-3.9 5.6-1.8.7-3.9.8-5.6.8H-310v-21.5zm7.7 16.6h9.5c.8 0 1.3 0 1.6-.2 1-.4 1.2-1.1 1.2-1.9 0-.8-.4-1.4-1-1.5-.5-.2-1-.2-1.9-.2h-9.4v3.8zm0-8.4h9c1.2 0 1.4-.1 1.6-.2.6-.2.9-.7.9-1.5 0-.6-.3-1.1-1-1.4-.3-.2-.8-.2-1.5-.2h-9v3.3z"/></g></g><g><path class="st1" d="M-402.9 511l8.4-.9-.1-.1c-.8-.9-1.8-2.3-2.6-3.7-.6-1.1-1.1-2.2-1.4-3.2l-5 6.7c.1.1.1.3.2.4.1.3.3.6.5.8zM-405.5 508.5l3.4-7.7h-.2c-1.2.3-2.8.4-4.4.4-1.2 0-2.5-.1-3.5-.4l3.3 7.7h.5c.3.1.6.1.9 0zM-408.9 509.5l-5-6.8c0 .1 0 .1-.1.2-.4 1.2-1.1 2.7-1.9 4-.6 1.1-1.4 2.1-2.1 2.9l8.3 1c.1-.1.2-.2.3-.4.2-.3.4-.6.5-.9zM-409.8 513l-8.4.9.1.1c.8.9 1.8 2.3 2.6 3.7.6 1.1 1.1 2.2 1.4 3.2l5-6.7c-.1-.1-.1-.3-.2-.4-.1-.3-.3-.6-.5-.8zM-407.2 515.4l-3.4 7.7h.2c1.2-.3 2.8-.4 4.4-.4 1.2 0 2.5.1 3.5.4l-3.3-7.7h-1.4zM-403.8 514.4l5 6.8c0-.1 0-.1.1-.2.4-1.2 1.1-2.7 1.9-4 .6-1.1 1.4-2.1 2.1-2.9l-8.3-1c-.1.1-.2.2-.2.4-.3.4-.5.7-.6.9z"/><g><path class="st0" d="M-390.2 509.4l8.3-.9-.6-.6c-1.6-1.8-3.5-4.4-5-7.1-1.4-2.5-2.6-5.3-3.2-7.6l-5.2 6.9c.1.9.6 2.5 1.8 4.5 1.7 2.8 3.3 4.4 3.9 4.8zM-400.5 496.7l3.4-7.6c-.3.1-.5.1-.8.2-2.4.5-5.5.8-8.7.8-2.9 0-5.9-.4-8.2-1.1l3.4 7.9c.9.3 2.5.7 4.8.7 3.2 0 5.5-.5 6.1-.9zM-416.7 499.3l-4.9-6.7c-.1.3-.1.5-.2.8-.7 2.3-2.1 5.2-3.7 7.9-1.5 2.5-3.3 4.9-5 6.5l8.5 1c.7-.6 1.8-1.8 3-3.8 1.7-2.8 2.3-5 2.3-5.7zM-422.5 514.6l-8.3.9.6.6c1.6 1.8 3.5 4.4 5 7.1 1.4 2.5 2.6 5.3 3.2 7.6l5.2-6.9c-.1-.9-.6-2.5-1.8-4.5-1.7-2.8-3.3-4.5-3.9-4.8zM-412.2 527.3l-3.4 7.6c.3-.1.5-.1.8-.2 2.4-.5 5.5-.8 8.7-.8 2.9 0 5.9.4 8.2 1.1l-3.4-7.9c-.9-.3-2.5-.7-4.8-.7-3.2-.1-5.5.5-6.1.9zM-396 524.7l4.9 6.7c.1-.3.2-.5.2-.8.7-2.3 2.1-5.2 3.7-7.9 1.5-2.5 3.3-4.9 5-6.5l-8.5-1c-.7.6-1.8 1.8-3 3.8-1.7 2.7-2.4 5-2.3 5.7z"/></g></g></svg>